<svg 
 xmlns="http://www.w3.org/2000/svg"
 xmlns:xlink="http://www.w3.org/1999/xlink"
 width="25px" height="27px">
<path fill-rule="evenodd"  fill="rgb(255, 255, 255)"
 d="M23.261,26.998 L1.585,26.998 C0.710,26.998 -0.001,26.278 -0.001,25.391 L-0.001,10.806 C-0.001,9.920 0.709,9.199 1.585,9.199 L4.270,9.199 L4.270,12.102 C3.916,12.458 3.696,12.951 3.696,13.495 C3.696,14.582 4.565,15.460 5.636,15.460 C6.706,15.460 7.575,14.582 7.575,13.495 C7.575,12.951 7.355,12.457 7.000,12.102 L7.000,9.199 L18.147,9.199 L18.147,12.047 C17.756,12.406 17.506,12.919 17.506,13.496 C17.506,14.582 18.374,15.462 19.445,15.462 C20.515,15.462 21.383,14.582 21.383,13.496 C21.383,12.989 21.189,12.533 20.877,12.183 L20.877,9.199 L23.261,9.199 C24.138,9.199 24.848,9.921 24.848,10.807 L24.848,25.391 C24.848,26.278 24.138,26.998 23.261,26.998 ZM19.511,14.307 C19.071,14.307 18.714,13.943 18.714,13.496 L18.714,7.835 C18.714,4.405 15.959,1.615 12.574,1.615 C9.189,1.615 6.435,4.405 6.435,7.835 L6.435,13.496 C6.435,13.944 6.076,14.307 5.636,14.307 C5.195,14.307 4.837,13.944 4.837,13.496 L4.837,7.835 C4.837,3.514 8.308,-0.003 12.575,-0.003 C16.840,-0.003 20.311,3.514 20.311,7.835 L20.311,13.496 C20.311,13.943 19.954,14.307 19.511,14.307 Z"/>
</svg>