<svg 
 xmlns="http://www.w3.org/2000/svg"
 xmlns:xlink="http://www.w3.org/1999/xlink"
 width="15px" height="27px">
<path fill-rule="evenodd"  fill="rgb(255, 255, 255)"
 d="M14.336,0.277 L10.763,0.272 C6.748,0.272 4.154,2.795 4.154,6.700 L4.154,9.664 L0.561,9.664 C0.250,9.664 -0.001,9.902 -0.001,10.197 L-0.001,14.491 C-0.001,14.785 0.251,15.024 0.561,15.024 L4.154,15.024 L4.154,25.859 C4.154,26.153 4.405,26.391 4.716,26.391 L9.403,26.391 C9.714,26.391 9.965,26.153 9.965,25.859 L9.965,15.024 L14.166,15.024 C14.477,15.024 14.728,14.785 14.728,14.491 L14.730,10.197 C14.730,10.056 14.671,9.920 14.565,9.820 C14.460,9.720 14.317,9.664 14.168,9.664 L9.966,9.664 L9.966,7.151 C9.966,5.944 10.269,5.331 11.928,5.331 L14.336,5.330 C14.646,5.330 14.897,5.091 14.897,4.797 L14.897,0.810 C14.897,0.516 14.646,0.278 14.336,0.277 Z"/>
</svg>