<svg 
 xmlns="http://www.w3.org/2000/svg"
 xmlns:xlink="http://www.w3.org/1999/xlink"
 width="27px" height="22px">
<path fill-rule="evenodd"  fill="rgb(255, 255, 255)"
 d="M24.511,11.601 L24.511,13.596 L22.874,13.596 L22.874,11.601 L20.964,11.601 L20.964,9.891 L22.874,9.891 L22.874,7.897 L24.511,7.897 L24.511,9.891 L26.421,9.891 L26.421,11.601 L24.511,11.601 ZM10.353,21.505 C4.827,21.505 0.348,16.828 0.348,11.058 C0.348,5.287 4.827,0.611 10.353,0.611 C13.079,0.611 15.549,1.750 17.354,3.595 L15.094,6.160 C13.885,4.883 12.208,4.092 10.353,4.092 C6.669,4.092 3.683,7.211 3.683,11.058 C3.683,14.904 6.668,18.022 10.353,18.022 C13.339,18.022 15.867,15.973 16.717,13.147 L11.020,13.147 L11.020,9.897 L20.357,9.897 L20.357,13.147 C19.430,17.916 15.193,21.505 10.353,21.505 Z"/>
</svg>