<svg 
 xmlns="http://www.w3.org/2000/svg"
 xmlns:xlink="http://www.w3.org/1999/xlink"
 width="28px" height="28px">
<path fill-rule="evenodd"  fill="rgb(255, 255, 255)"
 d="M20.415,27.998 L8.100,27.998 C3.919,27.998 0.517,24.534 0.517,20.276 L0.517,7.736 C0.517,3.478 3.919,0.014 8.100,0.014 L20.415,0.014 C24.597,0.014 27.999,3.478 27.999,7.736 L27.999,20.276 C27.999,24.534 24.597,27.998 20.415,27.998 ZM25.560,20.276 L25.560,7.736 C25.560,4.848 23.252,2.497 20.415,2.497 L8.100,2.497 C5.263,2.497 2.955,4.848 2.955,7.736 L2.955,20.276 C2.955,23.165 5.263,25.516 8.100,25.516 L20.415,25.516 C23.252,25.516 25.561,23.165 25.561,20.276 L25.560,20.276 ZM21.636,8.332 C21.167,8.332 20.705,8.136 20.373,7.798 C20.040,7.460 19.848,6.990 19.848,6.511 C19.848,6.031 20.040,5.560 20.373,5.223 C20.705,4.884 21.167,4.690 21.636,4.690 C22.108,4.690 22.569,4.884 22.901,5.223 C23.234,5.560 23.424,6.031 23.424,6.511 C23.424,6.990 23.234,7.460 22.901,7.798 C22.568,8.136 22.108,8.332 21.636,8.332 ZM14.258,21.218 C10.353,21.218 7.176,17.982 7.176,14.007 C7.176,10.030 10.353,6.796 14.258,6.796 C18.163,6.796 21.339,10.030 21.339,14.007 C21.339,17.982 18.163,21.218 14.258,21.218 ZM14.258,9.278 C11.697,9.278 9.614,11.399 9.614,14.007 C9.614,16.613 11.698,18.734 14.258,18.734 C16.818,18.734 18.901,16.613 18.901,14.007 C18.901,11.399 16.818,9.278 14.258,9.278 Z"/>
</svg>