<svg 
 xmlns="http://www.w3.org/2000/svg"
 xmlns:xlink="http://www.w3.org/1999/xlink"
 width="27px" height="26px">
<path fill-rule="evenodd"  fill="rgb(255, 255, 255)"
 d="M26.234,22.600 L18.262,14.986 C19.415,13.436 20.101,11.546 20.101,9.500 C20.101,4.263 15.656,0.020 10.173,0.020 C4.691,0.020 0.246,4.263 0.246,9.500 C0.246,14.737 4.691,18.982 10.173,18.982 C12.316,18.982 14.294,18.328 15.917,17.225 L23.890,24.840 C24.214,25.149 24.638,25.305 25.063,25.305 C25.487,25.305 25.912,25.149 26.234,24.840 C26.882,24.221 26.882,23.217 26.234,22.600 ZM15.565,13.153 L14.915,14.027 L13.999,14.651 C12.871,15.417 11.548,15.821 10.173,15.821 C6.524,15.821 3.555,12.987 3.555,9.500 C3.555,6.015 6.524,3.178 10.173,3.178 C13.823,3.178 16.792,6.015 16.792,9.500 C16.793,10.812 16.368,12.076 15.565,13.153 Z"/>
</svg>