<svg 
 xmlns="http://www.w3.org/2000/svg"
 xmlns:xlink="http://www.w3.org/1999/xlink"
 width="26px" height="22px">
<path fill-rule="evenodd"  fill="rgb(255, 255, 255)"
 d="M24.709,1.227 C23.724,1.831 22.633,2.270 21.472,2.508 C20.543,1.480 19.220,0.841 17.754,0.841 C14.941,0.841 12.660,3.205 12.660,6.116 C12.660,6.530 12.705,6.933 12.791,7.319 C8.558,7.099 4.804,4.997 2.292,1.806 C1.853,2.583 1.603,3.489 1.603,4.458 C1.603,6.289 2.503,7.904 3.868,8.849 C3.034,8.820 2.249,8.582 1.561,8.186 L1.561,8.252 C1.561,10.809 3.318,12.941 5.647,13.427 C5.220,13.546 4.770,13.612 4.305,13.612 C3.976,13.612 3.658,13.578 3.346,13.516 C3.994,15.612 5.875,17.137 8.103,17.181 C6.361,18.595 4.163,19.438 1.777,19.438 C1.366,19.438 0.961,19.413 0.562,19.366 C2.817,20.862 5.493,21.737 8.371,21.737 C17.741,21.737 22.865,13.697 22.865,6.725 L22.848,6.041 C23.846,5.300 24.712,4.371 25.394,3.313 C24.480,3.732 23.500,4.017 22.469,4.145 C23.521,3.492 24.327,2.456 24.709,1.227 Z"/>
</svg>